REM Ripping Tool: trurip

FILE "A.III. - A Ressha De Ikou III (1993)(Artdink)(JP)[AKA Take the 'A' Train III].img" BINARY
  TRACK 01 AUDIO
    INDEX 01 00:00:00
  TRACK 02 MODE1/2352
    INDEX 00 00:44:66
    INDEX 01 00:47:65
  TRACK 03 AUDIO
    INDEX 00 01:11:45
    INDEX 01 01:13:45
  TRACK 04 AUDIO
    INDEX 01 02:06:35
  TRACK 05 AUDIO
    INDEX 01 02:38:40
  TRACK 06 AUDIO
    INDEX 01 03:12:06

REM DISC HASHES
REM CRC32 : 197921f3
REM MD5   : 33c63b1708803cb0468e12ca1d03d815
REM SHA1  : 7a9f571498f6df429a4da3fd70cdd79bd575f695

REM Gap Append Method: Prev [crc32]
REM Trk 01: a465bf63
REM Trk 02: 67fa6c50
REM Trk 03: 79a00d81
REM Trk 04: f7b27f4c
REM Trk 05: 4fb0bc83
REM Trk 06: 75815daa

REM Gap Append Method: Prev [md5]
REM Trk 01: a8687361a055630465fad260c700dfe9
REM Trk 02: 0844bc4a7ad8ee062540dbacf0379839
REM Trk 03: fbcb20c30c6ba16761e67ec1371afc1d
REM Trk 04: 4a5b0d89156be9539ca56fb04e24a4e4
REM Trk 05: 2c1a586d031380e5b084d99c00a54367
REM Trk 06: 010fa27ecc4a23456c05dc4d49f11881

REM Gap Append Method: Prev [sha1]
REM Trk 01: 8df6b59cc7770b1a21e275057333288a62353b24
REM Trk 02: 4d7b9090a5bd12fe0044db0599e057316da67caf
REM Trk 03: 06f8f378cf1095c55bbaa10c4ea5d16d82337a18
REM Trk 04: ee605aa46f543b9d30d77474fc73996e8e77a65e
REM Trk 05: 74e5500bb8138abdb0899018247fcbbcdbfb54b7
REM Trk 06: 57f44cc4d9e98517851780e92921d3aa9e9b8de9

REM Gap Append Method: None [crc32]
REM Trk 01: 22144d0f
REM Trk 02: b27c2862
REM Trk 03: 79a00d81
REM Trk 04: f7b27f4c
REM Trk 05: 4fb0bc83
REM Trk 06: 75815daa
REM Gap 02: eacd1466
REM Gap 03: 7abe247f

REM Gap Append Method: None [md5]
REM Trk 01: ad1067d0bcc2ffeea540d3b985c51188
REM Trk 02: 191eba5a4d5dea06f45ef87d3f8fc44c
REM Trk 03: fbcb20c30c6ba16761e67ec1371afc1d
REM Trk 04: 4a5b0d89156be9539ca56fb04e24a4e4
REM Trk 05: 2c1a586d031380e5b084d99c00a54367
REM Trk 06: 010fa27ecc4a23456c05dc4d49f11881
REM Gap 02: 878bf0e0b9f1b8bc0330bfe39eb227c9
REM Gap 03: 9df204fbc98bb8965081cb30a89715fc

REM Gap Append Method: None [sha1]
REM Trk 01: 3b472f5e80bbf8259e09f8e4f547567bddb02490
REM Trk 02: 2391fac3c8dd044678c10a5e792e5a1b39474f86
REM Trk 03: 06f8f378cf1095c55bbaa10c4ea5d16d82337a18
REM Trk 04: ee605aa46f543b9d30d77474fc73996e8e77a65e
REM Trk 05: 74e5500bb8138abdb0899018247fcbbcdbfb54b7
REM Trk 06: 57f44cc4d9e98517851780e92921d3aa9e9b8de9
REM Gap 02: fb2028173c340a0b16ab201d9314c7ae2a171ffe
REM Gap 03: cbe29e0bd725ef1194f8c47619dd42078e841de2

REM Gap Append Method: Next [crc32]
REM Trk 01: 22144d0f
REM Trk 02: 1aac51a0
REM Trk 03: 81222e59
REM Trk 04: f7b27f4c
REM Trk 05: 4fb0bc83
REM Trk 06: 75815daa

REM Gap Append Method: Next [md5]
REM Trk 01: ad1067d0bcc2ffeea540d3b985c51188
REM Trk 02: 9b1b63affc3a916c09530bb84acfb230
REM Trk 03: d4eb7c7a6c7d48d0bf020459bf486e27
REM Trk 04: 4a5b0d89156be9539ca56fb04e24a4e4
REM Trk 05: 2c1a586d031380e5b084d99c00a54367
REM Trk 06: 010fa27ecc4a23456c05dc4d49f11881

REM Gap Append Method: Next [sha1]
REM Trk 01: 3b472f5e80bbf8259e09f8e4f547567bddb02490
REM Trk 02: bc7b5f2bcda7fe85cc782d638bd3b220dfe07497
REM Trk 03: 38105909f06f887772b946b00dd5b44926c06dd4
REM Trk 04: ee605aa46f543b9d30d77474fc73996e8e77a65e
REM Trk 05: 74e5500bb8138abdb0899018247fcbbcdbfb54b7
REM Trk 06: 57f44cc4d9e98517851780e92921d3aa9e9b8de9

